name rise31.4854peak64.571fall78.6902.mot
datacolumns 19
datarows 35
range 18.34326900000000 18.39992900000000
endheader
time	ground_force1_vx	ground_force1_vy	ground_force1_vz	ground_force1_px	ground_force1_py	ground_force1_pz	ground_force2_vx	ground_force2_vy	ground_force2_vz	ground_force2_px	ground_force2_py	ground_force2_pz	ground_torque1_x	ground_torque1_y	ground_torque1_z	ground_torque2_x	ground_torque2_y	ground_torque2_z	
18.34326900000000	-54.75715500000000	820.62238100000002	60.70802800000000	0.09825200000000	0.00000000000000	0.11245300000000	-11.46859200000000	46.21511800000000	14.46088300000000	0.36499100000000	0.00000000000000	-0.06762000000000	0.00000000000000	23.03508700000000	0.00000000000000	0.00000000000000	9.44459300000000	0.00000000000000	
18.34493300000000	-54.80590900000000	817.44077200000004	60.45615100000000	0.09775400000000	0.00000000000000	0.11242400000000	-12.48051400000000	52.63401100000000	16.03876600000000	0.36784200000000	0.00000000000000	-0.06833200000000	0.00000000000000	22.90615800000000	0.00000000000000	0.00000000000000	10.55541800000000	0.00000000000000	
18.34659700000000	-54.86174600000000	814.13584000000003	60.17295300000000	0.09726900000000	0.00000000000000	0.11239000000000	-13.31663700000000	58.93874700000000	17.46792400000000	0.37050800000000	0.00000000000000	-0.06900000000000	0.00000000000000	22.77643500000000	0.00000000000000	0.00000000000000	11.58404600000000	0.00000000000000	
18.34826400000000	-54.92580700000000	810.71027200000003	59.85845300000000	0.09679700000000	0.00000000000000	0.11235000000000	-13.96019600000000	65.06356100000001	18.72594700000000	0.37300700000000	0.00000000000000	-0.06963200000000	0.00000000000000	22.64623500000000	0.00000000000000	0.00000000000000	12.51427900000000	0.00000000000000	
18.34993400000000	-54.99920000000000	807.16673800000001	59.51273900000000	0.09633700000000	0.00000000000000	0.11230500000000	-14.40457200000000	70.96926000000001	19.80126000000000	0.37535300000000	0.00000000000000	-0.07023300000000	0.00000000000000	22.51587000000000	0.00000000000000	0.00000000000000	13.33677600000000	0.00000000000000	
18.35160300000000	-55.08298900000000	803.50787600000001	59.13597100000000	0.09589000000000	0.00000000000000	0.11225500000000	-14.65243400000000	76.64243900000000	20.69242600000000	0.37755900000000	0.00000000000000	-0.07080600000000	0.00000000000000	22.38564200000000	0.00000000000000	0.00000000000000	14.04875300000000	0.00000000000000	
18.35326300000000	-55.17819400000000	799.73627199999999	58.72837700000000	0.09545400000000	0.00000000000000	0.11219900000000	-14.71426000000000	82.09271200000001	21.40674700000000	0.37963500000000	0.00000000000000	-0.07135600000000	0.00000000000000	22.25584500000000	0.00000000000000	0.00000000000000	14.65318600000000	0.00000000000000	
18.35493400000000	-55.28578000000000	795.85444800000005	58.29025400000000	0.09503000000000	0.00000000000000	0.11213700000000	-14.60646600000000	87.34852600000001	21.95837500000000	0.38159100000000	0.00000000000000	-0.07188700000000	0.00000000000000	22.12676400000000	0.00000000000000	0.00000000000000	15.15768400000000	0.00000000000000	
18.35659600000000	-55.40665300000000	791.86484700000005	57.82196700000000	0.09461800000000	0.00000000000000	0.11207000000000	-14.34936900000000	92.45215399999999	22.36619800000000	0.38343600000000	0.00000000000000	-0.07240000000000	0.00000000000000	21.99866800000000	0.00000000000000	0.00000000000000	15.57316100000000	0.00000000000000	
18.35826800000000	-55.54165700000000	787.76981599999999	57.32394400000000	0.09421600000000	0.00000000000000	0.11199800000000	-13.96518500000000	97.45441900000000	22.65169600000000	0.38517600000000	0.00000000000000	-0.07289800000000	0.00000000000000	21.87181600000000	0.00000000000000	0.00000000000000	15.91247800000000	0.00000000000000	
18.35993300000000	-55.69156600000000	783.57159700000000	56.79668000000000	0.09382400000000	0.00000000000000	0.11192000000000	-13.47620700000000	102.40963000000001	22.83696200000000	0.38681800000000	0.00000000000000	-0.07338200000000	0.00000000000000	21.74645200000000	0.00000000000000	0.00000000000000	16.18914700000000	0.00000000000000	
18.36160000000000	-55.85707900000000	779.27231600000005	56.24072800000000	0.09344200000000	0.00000000000000	0.11183700000000	-12.90328900000000	107.37109800000000	22.94300500000000	0.38836800000000	0.00000000000000	-0.07385600000000	0.00000000000000	21.62280100000000	0.00000000000000	0.00000000000000	16.41621200000000	0.00000000000000	
18.36326500000000	-56.03881400000000	774.87396600000000	55.65670300000000	0.09306900000000	0.00000000000000	0.11174800000000	-12.26469600000000	112.38747800000000	22.98843400000000	0.38983000000000	0.00000000000000	-0.07431900000000	0.00000000000000	21.50107600000000	0.00000000000000	0.00000000000000	16.60535200000000	0.00000000000000	
18.36493200000000	-56.23730300000000	770.37840500000004	55.04527700000000	0.09270500000000	0.00000000000000	0.11165400000000	-11.57534300000000	117.50007800000000	22.98853900000000	0.39121000000000	0.00000000000000	-0.07477400000000	0.00000000000000	21.38146800000000	0.00000000000000	0.00000000000000	16.76624600000000	0.00000000000000	
18.36659800000000	-56.45299000000000	765.78734099999997	54.40717600000000	0.09235000000000	0.00000000000000	0.11155400000000	-10.84642700000000	122.74117600000000	22.95479600000000	0.39251000000000	0.00000000000000	-0.07522000000000	0.00000000000000	21.26415100000000	0.00000000000000	0.00000000000000	16.90620300000000	0.00000000000000	
18.36826600000000	-56.68622200000000	761.10233200000005	53.74317700000000	0.09200100000000	0.00000000000000	0.11145000000000	-10.08538500000000	128.13327899999999	22.89472700000000	0.39373600000000	0.00000000000000	-0.07566000000000	0.00000000000000	21.14927900000000	0.00000000000000	0.00000000000000	17.03002700000000	0.00000000000000	
18.36993200000000	-56.93724500000000	756.32476999999994	53.05410800000000	0.09166000000000	0.00000000000000	0.11134000000000	-9.29615000000000	133.68921800000001	22.81209400000000	0.39488900000000	0.00000000000000	-0.07609400000000	0.00000000000000	21.03698500000000	0.00000000000000	0.00000000000000	17.14010800000000	0.00000000000000	
18.37160300000000	-57.20620300000000	751.45588699999996	52.34084100000000	0.09132500000000	0.00000000000000	0.11122500000000	-8.47960800000000	139.41292100000001	22.70732300000000	0.39597400000000	0.00000000000000	-0.07652200000000	0.00000000000000	20.92737800000000	0.00000000000000	0.00000000000000	17.23667200000000	0.00000000000000	
18.37326600000000	-57.49313000000000	746.49674200000004	51.60429100000000	0.09099500000000	0.00000000000000	0.11110400000000	-7.63420300000000	145.30067199999999	22.57810600000000	0.39699300000000	0.00000000000000	-0.07694400000000	0.00000000000000	20.82054900000000	0.00000000000000	0.00000000000000	17.31814700000000	0.00000000000000	
18.37493500000000	-57.79795200000000	741.44822599999998	50.84541400000000	0.09067000000000	0.00000000000000	0.11098000000000	-6.75660700000000	151.34268000000000	22.42008900000000	0.39794800000000	0.00000000000000	-0.07736200000000	0.00000000000000	20.71656300000000	0.00000000000000	0.00000000000000	17.38160200000000	0.00000000000000	
18.37660000000000	-58.12047600000000	736.31105400000001	50.06520100000000	0.09035000000000	0.00000000000000	0.11085000000000	-5.84239200000000	157.52477999999999	22.22759000000000	0.39884200000000	0.00000000000000	-0.07777600000000	0.00000000000000	20.61546100000000	0.00000000000000	0.00000000000000	17.42321000000000	0.00000000000000	
18.37826800000000	-58.46039300000000	731.08577200000002	49.26467500000000	0.09003300000000	0.00000000000000	0.11071500000000	-4.88667100000000	163.83011800000000	21.99428000000000	0.39967700000000	0.00000000000000	-0.07818600000000	0.00000000000000	20.51726100000000	0.00000000000000	0.00000000000000	17.43869200000000	0.00000000000000	
18.37992800000000	-58.81727600000000	725.77275399999996	48.44489200000000	0.08971800000000	0.00000000000000	0.11057700000000	-3.88463500000000	170.24069399999999	21.71379200000000	0.40045500000000	0.00000000000000	-0.07859200000000	0.00000000000000	20.42195700000000	0.00000000000000	0.00000000000000	17.42371700000000	0.00000000000000	
18.38159600000000	-59.19057400000000	720.37220600000001	47.60693100000000	0.08940600000000	0.00000000000000	0.11043300000000	-2.83200500000000	176.73868800000000	21.38021500000000	0.40117700000000	0.00000000000000	-0.07899500000000	0.00000000000000	20.32951800000000	0.00000000000000	0.00000000000000	17.37423500000000	0.00000000000000	
18.38326600000000	-59.57961500000000	714.88417000000004	46.75189500000000	0.08909500000000	0.00000000000000	0.11028600000000	-1.72534700000000	183.30749700000001	20.98847600000000	0.40184500000000	0.00000000000000	-0.07939300000000	0.00000000000000	20.23988700000000	0.00000000000000	0.00000000000000	17.28673500000000	0.00000000000000	
18.38493300000000	-59.98360100000000	709.30853100000002	45.88090600000000	0.08878400000000	0.00000000000000	0.11013400000000	-0.56227500000000	189.93248299999999	20.53459200000000	0.40246000000000	0.00000000000000	-0.07978900000000	0.00000000000000	20.15298200000000	0.00000000000000	0.00000000000000	17.15841900000000	0.00000000000000	
18.38660000000000	-60.40161300000000	703.64502000000005	44.99510400000000	0.08847300000000	0.00000000000000	0.10997900000000	0.65845500000000	196.60141500000000	20.01579500000000	0.40302500000000	0.00000000000000	-0.08018100000000	0.00000000000000	20.06869900000000	0.00000000000000	0.00000000000000	16.98729100000000	0.00000000000000	
18.38826400000000	-60.83260500000000	697.89322900000002	44.09563900000000	0.08816100000000	0.00000000000000	0.10982000000000	1.93695600000000	203.30465100000001	19.43056200000000	0.40353900000000	0.00000000000000	-0.08056900000000	0.00000000000000	19.98690700000000	0.00000000000000	0.00000000000000	16.77218700000000	0.00000000000000	
18.38993200000000	-61.27541200000000	692.05261499999995	43.18367300000000	0.08784700000000	0.00000000000000	0.10965800000000	3.27229200000000	210.03508199999999	18.77855200000000	0.40400500000000	0.00000000000000	-0.08095400000000	0.00000000000000	19.90744900000000	0.00000000000000	0.00000000000000	16.51273700000000	0.00000000000000	
18.39159800000000	-61.72874500000000	686.12251500000002	42.26037400000000	0.08753100000000	0.00000000000000	0.10949200000000	4.66261200000000	216.78790900000001	18.06048000000000	0.40442400000000	0.00000000000000	-0.08133600000000	0.00000000000000	19.83014800000000	0.00000000000000	0.00000000000000	16.20928700000000	0.00000000000000	
18.39326800000000	-62.19119600000000	680.10215600000004	41.32691300000000	0.08721100000000	0.00000000000000	0.10932300000000	6.10533200000000	223.56028900000001	17.27794600000000	0.40479600000000	0.00000000000000	-0.08171400000000	0.00000000000000	19.75479900000000	0.00000000000000	0.00000000000000	15.86279300000000	0.00000000000000	
18.39493200000000	-62.66124100000000	673.99067500000001	40.38446300000000	0.08688800000000	0.00000000000000	0.10915100000000	7.59731600000000	230.35090500000001	16.43324400000000	0.40512200000000	0.00000000000000	-0.08208800000000	0.00000000000000	19.68117600000000	0.00000000000000	0.00000000000000	15.47469300000000	0.00000000000000	
18.39660000000000	-63.13724300000000	667.78712800000005	39.43419500000000	0.08656000000000	0.00000000000000	0.10897700000000	9.13506200000000	237.15952500000000	15.52917400000000	0.40540300000000	0.00000000000000	-0.08245800000000	0.00000000000000	19.60903200000000	0.00000000000000	0.00000000000000	15.04678500000000	0.00000000000000	
18.39826700000000	-63.61745200000000	661.49051199999997	38.47727500000000	0.08622600000000	0.00000000000000	0.10880000000000	10.71487700000000	243.98655900000000	14.56885300000000	0.40564100000000	0.00000000000000	-0.08282500000000	0.00000000000000	19.53809400000000	0.00000000000000	0.00000000000000	14.58110300000000	0.00000000000000	
18.39992900000000	-64.10001500000000	655.09978300000000	37.51486000000000	0.08588700000000	0.00000000000000	0.10862100000000	12.33302200000000	250.83267799999999	13.55556200000000	0.40583500000000	0.00000000000000	-0.08318700000000	0.00000000000000	19.46807300000000	0.00000000000000	0.00000000000000	14.07981200000000	0.00000000000000	
